<?xml version="1.0" encoding="UTF-8"?>
<svg width="72px" height="72px" viewBox="0 0 72 72" version="1.1" xmlns="http://www.w3.org/2000/svg" xmlns:xlink="http://www.w3.org/1999/xlink">
    <title>logo_hh</title>
    <g id="Page-1" stroke="none" stroke-width="1" fill="none" fill-rule="evenodd" stroke-linejoin="round">
        <path d="M39.1232916,3.3 L39.1226001,32.3520351 L55.5620675,32.3528601 C54.6741909,28.209613 52.5566943,24.2146511 49.2218161,20.9582288 L49.2218161,20.9582288 L54.3687284,15.1582555 C60.4041488,20.9162805 63.5669782,28.4892366 63.802239,36.0172712 C64.037507,43.545539 61.3463322,51.0287049 55.6754775,56.6198611 L55.6754775,56.6198611 L49.7566549,51.4884655 C53.2330558,48.2675851 55.2611169,44.0726541 55.8565077,39.6478472 L55.8565077,39.6478472 L39.1226001,39.647034 L39.1232916,68.7 L31.8767285,68.7 L31.8765869,39.6470038 L15.4379224,39.6470927 C16.325793,43.7903567 18.4432931,47.7853366 21.7781839,51.0417712 L21.7781839,51.0417712 L16.6312716,56.8417445 C10.5315581,51.0223806 7.36597524,43.3492378 7.19123958,35.7421837 C7.01654093,28.1367407 9.82993309,20.5974373 15.68676,15.0294509 L15.68676,15.0294509 L21.2047227,20.5474136 C17.7519309,23.7635258 15.7366879,27.9437304 15.1434981,32.3521096 L15.1434981,32.3521096 L31.8765869,32.3520044 L31.8767285,3.3 L39.1232916,3.3 Z" id="icon_hh" stroke="#FFFFFF" stroke-width="1.4"></path>
    </g>
</svg>