<?xml version="1.0" encoding="UTF-8"?>
<svg width="72px" height="72px" viewBox="0 0 72 72" version="1.1" xmlns="http://www.w3.org/2000/svg" xmlns:xlink="http://www.w3.org/1999/xlink">
    <title>logo_fc</title>
    <defs>
        <path d="M31.9418182,0 C32.5282377,-1.07723524e-16 33.0036247,0.475386974 33.0036247,1.06180653 L33.003,2.653 L33.1109149,2.71653996 C35.2033739,3.88014412 37.7489869,3.91675083 39.8804718,2.79833015 L39.9525553,2.76050688 C42.1944682,1.58414309 44.8326193,1.42339471 47.2007731,2.31885696 L47.8689161,2.57149967 L47.8689161,12.034726 L47.2597374,11.7962497 C44.9043553,10.8741841 42.2671296,11.0031153 40.0129227,12.1505388 L39.5597413,12.3812146 C37.5071216,13.4260273 35.0689263,13.3441625 33.0964569,12.1796601 L33.003,12.121 L33.003,17.002 L57.5075254,32.1348546 C59.7402114,33.5136847 61.1979018,35.8589468 61.445941,38.471328 L63.8836364,64.1454545 L39.349,64.145 L35.2013667,52.5400779 C34.7202912,51.1941139 33.4797054,50.2762941 32.0649735,50.199028 L31.8710311,50.1937405 C30.3767065,50.1937405 29.043638,51.1329337 28.5406955,52.5400779 L28.5406955,52.5400779 L24.392,64.145 L0,64.1454545 L2.43769541,38.471328 C2.68573461,35.8589468 4.14342497,33.5136847 6.37611091,32.1348546 L13.3107426,27.8518859 C12.2553889,26.9152495 10.285324,26.0967421 7.40054783,25.3963636 C10.462692,24.6441572 12.4903882,23.77143 13.4836364,22.7781818 C14.4768845,21.7849337 15.3496118,19.7572375 16.1018182,16.6950933 C16.8543889,19.7576018 17.7271161,21.785298 18.72,22.7781818 C19.0430702,23.101252 19.475702,23.4116005 20.0178955,23.7092274 L30.88,17.001 L30.8800117,1.06180653 C30.8800117,0.475386974 31.3553986,1.07723524e-16 31.9418182,0 Z" id="path-1"></path>
    </defs>
    <g id="Page-1" stroke="none" stroke-width="1" fill="none" fill-rule="evenodd">
        <g id="icon_fc" transform="translate(4.000000, 4.000000)">
            <mask id="mask-2" fill="white">
                <use xlink:href="#path-1"></use>
            </mask>
            <path stroke="#FFFFFF" stroke-width="1.39853966" d="M31.9418182,-0.699269828 C32.428126,-0.699269828 32.8683951,-0.502154643 33.1870872,-0.183462506 C33.5057794,0.135229631 33.7028945,0.575498719 33.7028945,1.06208106 L33.7028945,1.06208106 L33.7024363,2.22921838 C35.6032016,3.15114949 37.7443313,3.12950617 39.5555661,2.17912532 C42.0507679,0.869857239 44.8952518,0.699486698 47.4480952,1.66478503 L47.4480952,1.66478503 L48.5681859,2.08832127 L48.5681859,13.0594127 L47.0048294,12.4474027 C44.8353985,11.5981317 42.4063749,11.7168841 40.3301316,12.7737216 L40.3301316,12.7737216 L39.8769503,13.0043974 C37.9577739,13.9812855 35.7333107,14.0660442 33.7743731,13.2882723 L33.7743731,13.2882723 L33.7098689,16.616665 L57.8749517,31.5398955 C60.2939848,33.0338073 61.8733386,35.5748124 62.14208,38.4052313 L62.14208,38.4052313 L64.6524464,64.8447386 L38.8563285,64.8442607 L34.5428929,52.77543 C34.3503208,52.2366473 34.0060609,51.7833689 33.5684266,51.4567123 C33.1335409,51.1321072 32.6064745,50.9324617 32.0443065,50.898278 C31.3946432,50.8992581 30.8103184,51.0645386 30.3317272,51.3638572 C29.8547878,51.6621427 29.485335,52.0928677 29.2625832,52.61369 L29.2625832,52.61369 L24.8844086,64.8442607 L-0.768810045,64.8447387 L1.7415564,38.4052313 C2.01029775,35.5748124 3.5896516,33.0338073 6.00866116,31.53991 L6.00866116,31.53991 L12.0543842,27.8059493 C10.9727853,27.1601691 9.36109203,26.5919368 7.23556874,26.075893 C5.67078671,25.6959885 4.34051365,25.4689145 3.24654387,25.4066206 C4.33732705,25.3365537 5.66703469,25.1021372 7.23373359,24.7172824 C10.1156012,24.0093604 12.0510093,23.221892 12.9891779,22.2837234 C13.9273466,21.3455547 14.714815,19.4101467 15.422737,16.528279 C15.7901789,15.0324659 16.0204878,13.7526837 16.1015712,12.6910396 C16.1828767,13.7529484 16.4133486,15.0325693 16.7808853,16.5282216 C17.4891563,19.4104572 18.2766254,21.3458904 19.2144584,22.2837234 C19.4250232,22.4942881 19.6900347,22.6967476 20.0073016,22.8938955 L20.0073016,22.8938955 L30.1807305,16.610981 L30.1807418,1.06180653 C30.1807418,0.575498719 30.377857,0.135229631 30.6965491,-0.183462506 C31.0152413,-0.502154643 31.4555104,-0.699269828 31.9418182,-0.699269828 Z"></path>
        </g>
    </g>
</svg>