<?xml version="1.0" encoding="UTF-8"?>
<svg width="72px" height="72px" viewBox="0 0 72 72" version="1.1" xmlns="http://www.w3.org/2000/svg" xmlns:xlink="http://www.w3.org/1999/xlink">
    <title>logo_tc</title>
    <g id="Page-1" stroke="none" stroke-width="1" fill="none" fill-rule="evenodd">
        <g id="Group-2" transform="translate(12.000000, 3.000000)" fill-rule="nonzero" stroke="#FFFFFF" stroke-width="1.4">
            <path d="M16.1437092,19.8883359 L17.9474756,21.9401202 L17.9474756,28.2082084 C12.3783468,30.4629163 8.43260786,35.9193097 8.43260786,42.3001333 C8.43260786,50.687647 15.241826,57.4968651 23.6293397,57.4968651 C32.0168534,57.4968651 38.8260715,50.687647 38.8260715,42.3001333 C38.8260715,35.8967626 34.8577854,30.4403693 29.2661096,28.2082084 L29.2661096,28.2082084 L29.2661096,21.9852143 L31.0924231,19.910883 L34.2490143,21.2186136 L34.0235435,24.2624694 C34.8352384,24.7359581 35.6243861,25.2545409 36.3684398,25.840765 L36.3684398,25.840765 L39.1417306,24.4879402 L41.5317211,26.9004777 L40.1563492,29.6512215 C40.7200262,30.3952751 41.238609,31.1618758 41.7120977,31.9735707 L41.7120977,31.9735707 L44.8010476,31.770647 L46.0862312,34.9272381 L43.7413349,36.9564753 C43.9893528,37.8358114 44.1697294,38.7376946 44.2824648,39.6621249 L44.2824648,39.6621249 L47.2586793,40.6767435 L47.2361323,44.0813526 L44.2373706,45.0734241 C44.1020882,45.9753073 43.9217115,46.8771905 43.6962407,47.7339795 L43.6962407,47.7339795 L46.0862312,49.8308579 L44.7559535,52.9874491 L41.5993623,52.7619783 C41.1484207,53.528579 40.6298379,54.2726327 40.088708,54.9941392 L40.088708,54.9941392 L41.509174,57.8576183 L39.0966364,60.2701559 L36.2331573,58.8496899 C35.5341978,59.3908198 34.7901442,59.8868555 34.0235435,60.3377971 L34.0235435,60.3377971 L34.2264672,63.5394825 L31.069876,64.824666 L28.9729976,62.4121285 C28.1162086,62.6375993 27.2594195,62.8179759 26.3575363,62.9307113 L26.3575363,62.9307113 L25.3429177,65.9745671 L21.9383087,65.9745671 L20.901143,62.9307113 C19.9992598,62.8179759 19.1424708,62.6375993 18.2856818,62.4121285 L18.2856818,62.4121285 L16.1888033,64.824666 L13.0322121,63.5394825 L13.2351359,60.3377971 C12.4685352,59.8868555 11.7244815,59.3908198 11.002975,58.8496899 L11.002975,58.8496899 L8.1620429,60.2701559 L5.74950536,57.8576183 L7.14742431,54.9941392 C6.60629439,54.2951797 6.08771156,53.5511261 5.63676996,52.7619783 L5.63676996,52.7619783 L2.48017878,52.9874491 L1.17244815,49.853405 L3.53989153,47.7565266 C3.29187366,46.8771905 3.11149702,45.9753073 2.99876162,45.0734241 L2.99876162,45.0734241 L0.0225470798,44.0813526 L-1.17958812e-13,40.6767435 L2.95366746,39.6621249 C3.08894994,38.7376946 3.26932658,37.8358114 3.49479738,36.9564753 L3.49479738,36.9564753 L1.14990107,34.9272381 L2.43508462,31.770647 L5.52403456,31.9735707 C5.99752324,31.1618758 6.51610607,30.3952751 7.07978307,29.6512215 L7.07978307,29.6512215 L5.7044112,26.9004777 L8.09440166,24.4879402 L10.8676925,25.840765 C11.589199,25.2545409 12.3783468,24.7359581 13.1900417,24.2624694 L13.1900417,24.2624694 L12.987118,21.2186136 L16.1437092,19.8883359 Z M12.2881585,0.94878883 C12.6263647,0.159641035 13.5282479,-0.178565162 14.3399428,0.0919997959 C20.3600131,2.2114253 26.9437604,2.2114253 32.9638307,0.0919997959 C33.7755256,-0.178565162 34.6774088,0.182188115 35.015615,0.94878883 C35.308727,1.67029538 35.6018391,2.36925486 35.8949511,3.09076141 C36.1880631,3.85736213 35.7145745,4.80433948 34.722503,5.14254568 C31.9492121,6.11207011 29.085733,6.69829419 26.1997068,6.92376499 L26.1997068,6.92376499 L26.1997068,37.0466637 C27.4397962,37.6328877 28.4995089,38.6700534 29.0631859,40.0454253 C30.3258224,43.0216398 28.9053564,46.471343 25.9065947,47.7114324 C22.9303802,48.9740689 19.480677,47.5536029 18.2405876,44.5548412 C17.0230453,41.668815 18.3307759,38.3994884 21.1040667,37.0466637 L21.1040667,37.0466637 L21.1040667,6.94631207 C18.2180405,6.72084127 15.3545614,6.13461719 12.5812706,5.16509276 C11.589199,4.80433948 11.0931633,3.85736213 11.4088224,3.09076141 L11.4088224,3.09076141 Z" id="Path-2"></path>
            <path d="M22.9706005,40.7116618 C23.4237258,40.5336683 23.8879002,40.5502345 24.2850591,40.7149637 C24.6888543,40.8824454 25.0239446,41.2019148 25.1978856,41.6350389 C25.3758436,42.0642801 25.3625394,42.5260767 25.1970314,42.9269976 C25.0309243,43.3293695 24.7112019,43.6693718 24.2816144,43.8511809 C23.8497304,44.033962 23.3841677,44.0215715 22.9803451,43.8540785 C22.5789578,43.6875955 22.2394702,43.3673999 22.0580647,42.9367422 C21.8761939,42.5049798 21.8885261,42.0395503 22.0551835,41.6358451 C22.2212906,41.2334732 22.541013,40.8934709 22.9706005,40.7116618 Z" id="Path"></path>
        </g>
    </g>
</svg>